<?xml version="1.0"?><svg width="499.99999" height="500.00001" xmlns="http://www.w3.org/2000/svg" xmlns:xlink="http://www.w3.org/1999/xlink">
 <title>Hotel has tennis court</title>
 <defs>
  <symbol id="svg_7" height="500.00001" width="499.99999">
   <title>Hotel is near golf course</title>
   <g>
    <title>Layer 1</title>
    <path d="m855.000549,139.389099l-227.090271,0c-10.781128,0 -19.521179,8.740051 -19.521179,19.521164l0,454.179459c0,10.780029 8.740051,19.52124 19.521179,19.52124l454.179321,0c10.78125,0 19.52124,-8.741211 19.52124,-19.52124l0,-454.179459c0,-10.781113 -8.73999,-19.521164 -19.52124,-19.521164l-227.08905,0z" id="svg_6" stroke-miterlimit="4" stroke-width="6.778191" stroke="#000000" fill-rule="evenodd" fill="#ffffff"/>
    <path d="m389.636169,322.097595c0,7.942017 6.466461,14.365021 14.365082,14.365021c7.941986,0 14.365021,-6.423004 14.365021,-14.365021c0,-7.899811 -6.423035,-14.322845 -14.365021,-14.322845c-7.898621,0 -14.365082,6.423035 -14.365082,14.322845z" id="svg_5" fill-rule="evenodd" fill="#000000"/>
    <g id="svg_1">
     <path d="m203.237595,128.016602c11.283707,-6.206024 20.31192,-9.67794 27.254547,-10.589333c6.812439,-0.954765 12.066086,1.171768 14.104645,5.034279c1.909576,3.7323 3.644318,9.287354 -1.996353,17.663361c-5.685272,8.375977 -16.231201,18.965302 -31.811447,32.288757c14.754456,20.180481 25.08461,39.232574 31.811447,58.501694c6.509872,19.182312 6.294052,39.970322 7.551422,55.508347c1.084961,15.231812 2.47496,11.544128 -0.520798,35.802887c-3.253677,24.390167 -9.980545,89.6633 -17.663345,108.929993c-7.85524,18.923096 -23.738052,11.8479 -27.731949,4.558075c-3.90593,-7.596039 2.690735,-32.549133 4.5569,-48.910522c1.779327,-16.449402 3.73349,-32.203186 6.032455,-48.433136c-8.853424,21.958618 -19.616348,39.666565 -33.287018,54.465576c-13.799698,14.624207 -38.147705,30.856598 -47.912491,32.766144c-9.67675,1.64798 -12.932877,-13.71283 -9.589943,-22.176819c3.3405,-8.678558 19.61512,-18.139526 29.250908,-28.730042c9.460968,-10.674927 20.222717,-22.393829 27.253342,-34.327332c6.945023,-12.109467 13.366867,-20.52887 14.105865,-36.803436c0.477386,-16.403564 -3.776917,-43.831665 -10.590561,-60.02066c-6.900436,-16.231171 -23.564438,-24.042984 -30.249054,-36.32486c-6.726868,-12.455475 -10.197556,-27.080902 -9.589966,-36.845657c0.562973,-9.808151 6.378433,-16.751968 13.105255,-21.17865c6.726868,-4.383286 18.921967,-1.605759 26.733795,-5.034271c7.682816,-3.645493 14.019073,-8.853363 19.182343,-16.144394z" id="svg_4" fill-rule="evenodd" fill="#000000"/>
     <path d="m136.663574,141.64386l-56.505478,68.09285c4.730492,11.457306 9.547783,19.008698 14.626671,23.175003c5.034286,4.079498 14.92804,5.424866 15.622437,1.041565c0.565376,-4.55687 -3.470726,-13.974426 -12.107124,-28.25267l47.435074,-60.020645c-2.995712,-1.345367 -6.032455,-2.690735 -9.071579,-4.036102z" id="svg_3" fill-rule="evenodd" fill="#000000"/>
     <path d="m130.110321,108.573914c0,16.882179 13.628464,30.509415 30.510666,30.509415c16.840042,0 30.510712,-13.627235 30.510712,-30.509415c0,-16.83876 -13.67067,-30.509422 -30.510712,-30.509422c-16.883392,0 -30.510666,13.670662 -30.510666,30.509422z" id="svg_2" fill-rule="evenodd" fill="#000000"/>
    </g>
   </g>
  </symbol>
 </defs>
 <g>
  <title>Layer 1</title>
  <g id="g3029" transform="matrix(1.08451, 0, 0, 1.08451, -23.7616, -28.1214)">
   <path fill="#000000" fill-rule="evenodd" id="path99" d="m251.614639,238.737854c10.332016,-4.104004 20.69902,-4.644012 31.248001,-1.90802c10.656006,2.735992 23.400024,15.192017 31.71701,18.468018c8.207001,3.096008 14.110992,3.20401 16.73999,0.467987c2.447021,-2.843994 2.734009,-10.332001 -2.196991,-17.027985c-5.218994,-6.839996 -15.768005,-17.820007 -27.756012,-23.220001c-12.060974,-5.436005 -30.707001,-8.747986 -43.595978,-8.963989c-12.961014,-0.252014 -25.920029,3.563995 -33.480026,7.559998c-7.667999,4.031982 -7.235992,12.492004 -11.878998,16.09198c-4.71698,3.276001 -11.628998,0.432007 -15.876007,4.248016c-4.319977,3.743988 -7.128998,10.223999 -9.68399,18.467987c-2.592987,8.208008 1.007996,19.332001 -5.725006,30.312012c-7.019989,10.944 -18.431976,22.139984 -35.207977,34.561005c-8.928009,-11.772003 -15.013,-22.356018 -18.937012,-32.184998c-3.778992,-9.936005 -2.375,-15.588013 -3.996002,-26.532013c-1.799011,-11.015991 -0.898987,-28.26001 -6.588013,-38.808014c-5.938995,-10.619995 -18.251984,-20.807983 -27.755981,-24.155975c-9.610992,-3.276001 -22.067001,-1.656006 -28.619003,4.283997c-6.625,5.903992 -10.692001,19.944 -10.116997,30.743988c0.684998,10.656006 5.976997,24.623993 14.075996,33.156006c8.100998,8.423981 24.587997,11.772003 33.911987,17.531982c9.037018,5.652008 13.572021,8.532013 20.700012,16.559998c7.164001,8.136017 16.272003,24.156036 22.032013,31.248016c5.507996,6.839996 6.911987,9.359009 11.447998,9.936005c4.53598,0.432007 8.891998,-2.80899 15.406982,-7.09201c6.373016,-4.5 15.625,-11.231995 22.895996,-18.936005c7.236023,-7.776001 13.861023,-16.631989 20.266998,-27l17.174011,22.716003c-10.729004,8.604004 -19.835999,16.991028 -27.757996,25.597015c-8.098999,8.565979 -16.450989,15.981995 -19.367004,25.55899c-2.881012,9.432007 -0.899994,15.264008 2.627014,31.248016c3.563995,16.09198 13.247986,50.327972 18.504974,64.368988c5.111023,13.751984 7.416016,16.667999 12.348022,18.46701c4.931976,1.692993 14.866974,0.68399 17.171997,-8.027008c2.122986,-8.855011 -2.016022,-29.160004 -3.961029,-44.531006c-1.978973,-15.517975 -4.427979,-30.925995 -7.485992,-47.34198l35.675995,-26.963013c21.059036,29.735992 37.764023,53.244019 51.08403,71.496002c13.175995,18.071991 20.015991,27.972992 27.718994,36.899994c7.524994,8.891022 11.735992,14.256012 17.640991,16.09201c5.904022,1.618988 15.840027,0.324005 17.172028,-6.121002c1.044983,-6.550995 -0.721008,-13.28299 -10.584015,-32.687988c-10.152008,-19.69101 -30.889008,-51.19101 -48.889008,-83.809021c-18.105988,-32.721985 -36.968994,-69.046997 -58.102005,-110.770996zm-186.191994,-34.343994c-10.080002,7.70401 -11.880005,31.175995 -0.108002,49.031982c11.808998,17.820007 32.725014,23.256012 42.805,15.552002c10.079987,-7.703979 10.835999,-29.447998 -0.972992,-47.303986c-11.772003,-17.820007 -31.644012,-24.984009 -41.724007,-17.279999zm223.667992,108.143982c1.404022,0 3.133026,-0.108002 4.789001,-0.720001c1.69101,-0.64798 3.779022,-1.223999 5.436005,-2.699982c1.619995,-1.548004 2.988007,-3.636017 4.248016,-6.40802c-0.287994,2.376007 -0.072021,5.364014 0.64798,9.108002c0.684021,3.779999 1.835999,7.884003 3.600006,12.996033c-2.484009,-2.556 -5.221008,-4.788025 -8.35199,-6.840027c-3.167999,-2.087982 -6.625,-3.85199 -10.369019,-5.436005z"/>
   <path fill="#000000" fill-rule="evenodd" id="path101" d="m162.191635,197.553864c0,15.947998 12.02301,28.871979 26.891998,28.871979c14.833008,0 26.856018,-12.923981 26.856018,-28.871979c0,-15.984009 -12.02301,-28.908005 -26.856018,-28.908005c-14.868988,0 -26.891998,12.923996 -26.891998,28.908005z"/>
   <path fill="#000000" fill-rule="evenodd" id="path103" d="m30.286642,337.91687c0,10.835999 8.171999,19.621002 18.252001,19.621002c10.043999,0 18.216003,-8.785004 18.216003,-19.621002c0,-10.835999 -8.172005,-19.619019 -18.216003,-19.619019c-10.080002,0 -18.252001,8.784027 -18.252001,19.619019z"/>
  </g>
  <use x="282.338099" y="-10.709375" transform="matrix(1.02714, 0, 0, 1.02714, -61.9374, -60.131)" xlink:href="#svg_7" id="svg_8"/>
 </g>
</svg>